<mxfile host="app.diagrams.net" agent="Mozilla/5.0 (Windows NT 10.0; Win64; x64) AppleWebKit/537.36 (KHTML, like Gecko) Chrome/134.0.0.0 Safari/537.36 Edg/134.0.0.0" version="26.2.5">
  <diagram name="Page-1" id="AvEM0TQhjwWc7NJmV11_">
    <mxGraphModel dx="1275" dy="570" grid="1" gridSize="10" guides="1" tooltips="1" connect="1" arrows="1" fold="1" page="1" pageScale="1" pageWidth="850" pageHeight="1100" math="0" shadow="0">
      <root>
        <mxCell id="0" />
        <mxCell id="1" parent="0" />
        <mxCell id="fG41fa34wQB3t0aw6FAn-1" value="" style="line;strokeWidth=1;fillColor=none;align=left;verticalAlign=middle;spacingTop=-1;spacingLeft=3;spacingRight=3;rotatable=0;labelPosition=right;points=[];portConstraint=eastwest;strokeColor=inherit;" vertex="1" parent="1">
          <mxGeometry x="80" y="80" width="710" height="8" as="geometry" />
        </mxCell>
        <mxCell id="fG41fa34wQB3t0aw6FAn-4" value="" style="html=1;points=[];perimeter=orthogonalPerimeter;fillColor=strokeColor;" vertex="1" parent="1">
          <mxGeometry x="470" y="28.75" width="5" height="481.25" as="geometry" />
        </mxCell>
        <mxCell id="fG41fa34wQB3t0aw6FAn-11" value="&lt;b&gt;&lt;u&gt;:Admin&lt;/u&gt;&lt;/b&gt;" style="text;html=1;align=center;verticalAlign=middle;resizable=0;points=[];autosize=1;strokeColor=none;fillColor=none;" vertex="1" parent="1">
          <mxGeometry x="220" y="40" width="60" height="30" as="geometry" />
        </mxCell>
        <mxCell id="fG41fa34wQB3t0aw6FAn-13" value="&lt;u&gt;&lt;b&gt;:Hệ thống&lt;/b&gt;&lt;/u&gt;" style="text;html=1;align=center;verticalAlign=middle;resizable=0;points=[];autosize=1;strokeColor=none;fillColor=none;" vertex="1" parent="1">
          <mxGeometry x="610" y="40" width="80" height="30" as="geometry" />
        </mxCell>
        <mxCell id="fG41fa34wQB3t0aw6FAn-15" value="" style="ellipse;fillColor=strokeColor;html=1;" vertex="1" parent="1">
          <mxGeometry x="180" y="130" width="30" height="30" as="geometry" />
        </mxCell>
        <mxCell id="fG41fa34wQB3t0aw6FAn-24" style="edgeStyle=orthogonalEdgeStyle;rounded=0;orthogonalLoop=1;jettySize=auto;html=1;exitX=1;exitY=0.5;exitDx=0;exitDy=0;entryX=0.5;entryY=0;entryDx=0;entryDy=0;" edge="1" parent="1" source="fG41fa34wQB3t0aw6FAn-16" target="fG41fa34wQB3t0aw6FAn-19">
          <mxGeometry relative="1" as="geometry">
            <Array as="points">
              <mxPoint x="350" y="140" />
              <mxPoint x="570" y="140" />
            </Array>
          </mxGeometry>
        </mxCell>
        <mxCell id="fG41fa34wQB3t0aw6FAn-16" value="Đăng nhập" style="html=1;rounded=1;absoluteArcSize=1;arcSize=10;whiteSpace=wrap;" vertex="1" parent="1">
          <mxGeometry x="270" y="130" width="80" height="30" as="geometry" />
        </mxCell>
        <mxCell id="fG41fa34wQB3t0aw6FAn-17" value="" style="endArrow=open;html=1;rounded=0;align=center;verticalAlign=top;endFill=0;labelBackgroundColor=none;endSize=6;exitX=1;exitY=0.5;exitDx=0;exitDy=0;" edge="1" target="fG41fa34wQB3t0aw6FAn-16" parent="1" source="fG41fa34wQB3t0aw6FAn-15">
          <mxGeometry relative="1" as="geometry">
            <mxPoint x="130" y="145" as="sourcePoint" />
          </mxGeometry>
        </mxCell>
        <mxCell id="fG41fa34wQB3t0aw6FAn-23" style="edgeStyle=orthogonalEdgeStyle;rounded=0;orthogonalLoop=1;jettySize=auto;html=1;exitX=0;exitY=0.75;exitDx=0;exitDy=0;entryX=0.5;entryY=0;entryDx=0;entryDy=0;" edge="1" parent="1" source="fG41fa34wQB3t0aw6FAn-19" target="fG41fa34wQB3t0aw6FAn-25">
          <mxGeometry relative="1" as="geometry">
            <mxPoint x="270" y="225" as="targetPoint" />
            <Array as="points">
              <mxPoint x="110" y="183" />
            </Array>
          </mxGeometry>
        </mxCell>
        <mxCell id="fG41fa34wQB3t0aw6FAn-19" value="Hiển thị màn hình quản lý" style="html=1;rounded=1;absoluteArcSize=1;arcSize=10;whiteSpace=wrap;" vertex="1" parent="1">
          <mxGeometry x="530" y="160" width="80" height="30" as="geometry" />
        </mxCell>
        <mxCell id="fG41fa34wQB3t0aw6FAn-35" style="edgeStyle=orthogonalEdgeStyle;rounded=0;orthogonalLoop=1;jettySize=auto;html=1;exitX=1;exitY=0.5;exitDx=0;exitDy=0;" edge="1" parent="1" source="fG41fa34wQB3t0aw6FAn-25" target="fG41fa34wQB3t0aw6FAn-36">
          <mxGeometry relative="1" as="geometry">
            <mxPoint x="180" y="295" as="targetPoint" />
            <Array as="points">
              <mxPoint x="160" y="295" />
              <mxPoint x="160" y="350" />
            </Array>
          </mxGeometry>
        </mxCell>
        <mxCell id="fG41fa34wQB3t0aw6FAn-68" value="[Thao tác với tk]" style="edgeLabel;html=1;align=center;verticalAlign=middle;resizable=0;points=[];" vertex="1" connectable="0" parent="fG41fa34wQB3t0aw6FAn-35">
          <mxGeometry x="-0.06" relative="1" as="geometry">
            <mxPoint as="offset" />
          </mxGeometry>
        </mxCell>
        <mxCell id="fG41fa34wQB3t0aw6FAn-38" style="edgeStyle=orthogonalEdgeStyle;rounded=0;orthogonalLoop=1;jettySize=auto;html=1;exitX=1;exitY=0.5;exitDx=0;exitDy=0;entryX=0;entryY=0.5;entryDx=0;entryDy=0;" edge="1" parent="1" source="fG41fa34wQB3t0aw6FAn-25" target="fG41fa34wQB3t0aw6FAn-29">
          <mxGeometry relative="1" as="geometry">
            <Array as="points">
              <mxPoint x="160" y="295" />
              <mxPoint x="160" y="241" />
            </Array>
          </mxGeometry>
        </mxCell>
        <mxCell id="fG41fa34wQB3t0aw6FAn-63" value="[Thêm TK mới]" style="edgeLabel;html=1;align=center;verticalAlign=middle;resizable=0;points=[];" vertex="1" connectable="0" parent="fG41fa34wQB3t0aw6FAn-38">
          <mxGeometry x="-0.157" y="-2" relative="1" as="geometry">
            <mxPoint as="offset" />
          </mxGeometry>
        </mxCell>
        <mxCell id="fG41fa34wQB3t0aw6FAn-25" value="" style="rhombus;whiteSpace=wrap;html=1;fontColor=#000000;fillColor=#ffffc0;strokeColor=#ff0000;" vertex="1" parent="1">
          <mxGeometry x="80" y="270" width="60" height="50" as="geometry" />
        </mxCell>
        <mxCell id="fG41fa34wQB3t0aw6FAn-29" value="Điền username and password" style="html=1;rounded=1;absoluteArcSize=1;arcSize=10;whiteSpace=wrap;" vertex="1" parent="1">
          <mxGeometry x="185" y="225" width="110" height="32.5" as="geometry" />
        </mxCell>
        <mxCell id="fG41fa34wQB3t0aw6FAn-30" value="" style="endArrow=open;html=1;rounded=0;align=center;verticalAlign=top;endFill=0;labelBackgroundColor=none;endSize=6;" edge="1" source="fG41fa34wQB3t0aw6FAn-29" parent="1" target="fG41fa34wQB3t0aw6FAn-31">
          <mxGeometry relative="1" as="geometry">
            <mxPoint x="330" y="240" as="targetPoint" />
          </mxGeometry>
        </mxCell>
        <mxCell id="fG41fa34wQB3t0aw6FAn-77" style="edgeStyle=orthogonalEdgeStyle;rounded=0;orthogonalLoop=1;jettySize=auto;html=1;exitX=1;exitY=0.5;exitDx=0;exitDy=0;entryX=0;entryY=0.5;entryDx=0;entryDy=0;" edge="1" parent="1" source="fG41fa34wQB3t0aw6FAn-31">
          <mxGeometry relative="1" as="geometry">
            <mxPoint x="520" y="238.75" as="targetPoint" />
            <Array as="points">
              <mxPoint x="510" y="239" />
            </Array>
          </mxGeometry>
        </mxCell>
        <mxCell id="fG41fa34wQB3t0aw6FAn-31" value="Phân quyền" style="html=1;rounded=1;absoluteArcSize=1;arcSize=10;whiteSpace=wrap;" vertex="1" parent="1">
          <mxGeometry x="320" y="223.75" width="80" height="30" as="geometry" />
        </mxCell>
        <mxCell id="fG41fa34wQB3t0aw6FAn-96" style="edgeStyle=orthogonalEdgeStyle;rounded=0;orthogonalLoop=1;jettySize=auto;html=1;exitX=1;exitY=0.5;exitDx=0;exitDy=0;entryX=0;entryY=0.5;entryDx=0;entryDy=0;" edge="1" parent="1" source="fG41fa34wQB3t0aw6FAn-32" target="fG41fa34wQB3t0aw6FAn-48">
          <mxGeometry relative="1" as="geometry" />
        </mxCell>
        <mxCell id="fG41fa34wQB3t0aw6FAn-32" value="Lưu thông tin tài khoản" style="html=1;rounded=1;absoluteArcSize=1;arcSize=10;whiteSpace=wrap;" vertex="1" parent="1">
          <mxGeometry x="660" y="253.75" width="80" height="30" as="geometry" />
        </mxCell>
        <mxCell id="fG41fa34wQB3t0aw6FAn-73" style="edgeStyle=orthogonalEdgeStyle;rounded=0;orthogonalLoop=1;jettySize=auto;html=1;exitX=1;exitY=0.5;exitDx=0;exitDy=0;entryX=0;entryY=0.5;entryDx=0;entryDy=0;" edge="1" parent="1" source="fG41fa34wQB3t0aw6FAn-36" target="fG41fa34wQB3t0aw6FAn-40">
          <mxGeometry relative="1" as="geometry" />
        </mxCell>
        <mxCell id="fG41fa34wQB3t0aw6FAn-36" value="Tìm kiếm tài khoản" style="html=1;rounded=1;absoluteArcSize=1;arcSize=10;whiteSpace=wrap;" vertex="1" parent="1">
          <mxGeometry x="180" y="340" width="80" height="30" as="geometry" />
        </mxCell>
        <mxCell id="fG41fa34wQB3t0aw6FAn-50" style="edgeStyle=orthogonalEdgeStyle;rounded=0;orthogonalLoop=1;jettySize=auto;html=1;exitX=0.5;exitY=0;exitDx=0;exitDy=0;entryX=0;entryY=0.5;entryDx=0;entryDy=0;" edge="1" parent="1" source="fG41fa34wQB3t0aw6FAn-40" target="fG41fa34wQB3t0aw6FAn-42">
          <mxGeometry relative="1" as="geometry">
            <Array as="points">
              <mxPoint x="300" y="325" />
            </Array>
          </mxGeometry>
        </mxCell>
        <mxCell id="fG41fa34wQB3t0aw6FAn-69" value="[Chọn xóa]" style="edgeLabel;html=1;align=center;verticalAlign=middle;resizable=0;points=[];" vertex="1" connectable="0" parent="fG41fa34wQB3t0aw6FAn-50">
          <mxGeometry x="0.1127" y="1" relative="1" as="geometry">
            <mxPoint x="-2" y="1" as="offset" />
          </mxGeometry>
        </mxCell>
        <mxCell id="fG41fa34wQB3t0aw6FAn-54" style="edgeStyle=orthogonalEdgeStyle;rounded=0;orthogonalLoop=1;jettySize=auto;html=1;exitX=0.5;exitY=1;exitDx=0;exitDy=0;entryX=0;entryY=0.5;entryDx=0;entryDy=0;" edge="1" parent="1" source="fG41fa34wQB3t0aw6FAn-40" target="fG41fa34wQB3t0aw6FAn-53">
          <mxGeometry relative="1" as="geometry">
            <Array as="points">
              <mxPoint x="300" y="385" />
            </Array>
          </mxGeometry>
        </mxCell>
        <mxCell id="fG41fa34wQB3t0aw6FAn-71" value="[Chọn edit]" style="edgeLabel;html=1;align=center;verticalAlign=middle;resizable=0;points=[];" vertex="1" connectable="0" parent="fG41fa34wQB3t0aw6FAn-54">
          <mxGeometry x="-0.0918" y="-3" relative="1" as="geometry">
            <mxPoint as="offset" />
          </mxGeometry>
        </mxCell>
        <mxCell id="fG41fa34wQB3t0aw6FAn-40" value="" style="rhombus;whiteSpace=wrap;html=1;fontColor=#000000;fillColor=#ffffc0;strokeColor=#ff0000;" vertex="1" parent="1">
          <mxGeometry x="270" y="330" width="60" height="50" as="geometry" />
        </mxCell>
        <mxCell id="fG41fa34wQB3t0aw6FAn-42" value="Xóa tài khoản" style="html=1;rounded=1;absoluteArcSize=1;arcSize=10;whiteSpace=wrap;" vertex="1" parent="1">
          <mxGeometry x="380" y="310" width="80" height="30" as="geometry" />
        </mxCell>
        <mxCell id="fG41fa34wQB3t0aw6FAn-43" value="" style="endArrow=open;html=1;rounded=0;align=center;verticalAlign=top;endFill=0;labelBackgroundColor=none;endSize=6;entryX=0;entryY=0.5;entryDx=0;entryDy=0;" edge="1" source="fG41fa34wQB3t0aw6FAn-42" parent="1" target="fG41fa34wQB3t0aw6FAn-46">
          <mxGeometry relative="1" as="geometry">
            <mxPoint x="500" y="325" as="targetPoint" />
          </mxGeometry>
        </mxCell>
        <mxCell id="fG41fa34wQB3t0aw6FAn-98" style="edgeStyle=orthogonalEdgeStyle;rounded=0;orthogonalLoop=1;jettySize=auto;html=1;exitX=1;exitY=0.5;exitDx=0;exitDy=0;entryX=0;entryY=0.5;entryDx=0;entryDy=0;" edge="1" parent="1" source="fG41fa34wQB3t0aw6FAn-46" target="fG41fa34wQB3t0aw6FAn-48">
          <mxGeometry relative="1" as="geometry" />
        </mxCell>
        <mxCell id="fG41fa34wQB3t0aw6FAn-46" value="Cập nhật danh sách user" style="html=1;rounded=1;absoluteArcSize=1;arcSize=10;whiteSpace=wrap;" vertex="1" parent="1">
          <mxGeometry x="530" y="310" width="90" height="30" as="geometry" />
        </mxCell>
        <mxCell id="fG41fa34wQB3t0aw6FAn-48" value="" style="ellipse;html=1;shape=endState;fillColor=strokeColor;" vertex="1" parent="1">
          <mxGeometry x="860" y="310" width="30" height="30" as="geometry" />
        </mxCell>
        <mxCell id="fG41fa34wQB3t0aw6FAn-57" style="edgeStyle=orthogonalEdgeStyle;rounded=0;orthogonalLoop=1;jettySize=auto;html=1;exitX=0.5;exitY=1;exitDx=0;exitDy=0;entryX=0.5;entryY=0;entryDx=0;entryDy=0;" edge="1" parent="1" source="fG41fa34wQB3t0aw6FAn-53" target="fG41fa34wQB3t0aw6FAn-55">
          <mxGeometry relative="1" as="geometry" />
        </mxCell>
        <mxCell id="fG41fa34wQB3t0aw6FAn-53" value="Chỉnh sửa password" style="html=1;rounded=1;absoluteArcSize=1;arcSize=10;whiteSpace=wrap;" vertex="1" parent="1">
          <mxGeometry x="380" y="369.99998779296874" width="80" height="30" as="geometry" />
        </mxCell>
        <mxCell id="fG41fa34wQB3t0aw6FAn-55" value="Nhập password mới" style="html=1;rounded=1;absoluteArcSize=1;arcSize=10;whiteSpace=wrap;" vertex="1" parent="1">
          <mxGeometry x="370" y="430" width="80" height="30" as="geometry" />
        </mxCell>
        <mxCell id="fG41fa34wQB3t0aw6FAn-56" value="" style="endArrow=open;html=1;rounded=0;align=center;verticalAlign=top;endFill=0;labelBackgroundColor=none;endSize=6;entryX=0;entryY=0.5;entryDx=0;entryDy=0;" edge="1" source="fG41fa34wQB3t0aw6FAn-55" parent="1" target="fG41fa34wQB3t0aw6FAn-59">
          <mxGeometry relative="1" as="geometry">
            <mxPoint x="500" y="445" as="targetPoint" />
          </mxGeometry>
        </mxCell>
        <mxCell id="fG41fa34wQB3t0aw6FAn-99" style="edgeStyle=orthogonalEdgeStyle;rounded=0;orthogonalLoop=1;jettySize=auto;html=1;exitX=1;exitY=0.5;exitDx=0;exitDy=0;entryX=0;entryY=0.5;entryDx=0;entryDy=0;" edge="1" parent="1" source="fG41fa34wQB3t0aw6FAn-59" target="fG41fa34wQB3t0aw6FAn-48">
          <mxGeometry relative="1" as="geometry">
            <Array as="points">
              <mxPoint x="800" y="445" />
              <mxPoint x="800" y="325" />
            </Array>
          </mxGeometry>
        </mxCell>
        <mxCell id="fG41fa34wQB3t0aw6FAn-59" value="Cập nhật password mới" style="html=1;rounded=1;absoluteArcSize=1;arcSize=10;whiteSpace=wrap;" vertex="1" parent="1">
          <mxGeometry x="530" y="430" width="80" height="30" as="geometry" />
        </mxCell>
        <mxCell id="fG41fa34wQB3t0aw6FAn-86" style="edgeStyle=orthogonalEdgeStyle;rounded=0;orthogonalLoop=1;jettySize=auto;html=1;exitX=0.5;exitY=0;exitDx=0;exitDy=0;entryX=0;entryY=0.5;entryDx=0;entryDy=0;" edge="1" parent="1" source="fG41fa34wQB3t0aw6FAn-78" target="fG41fa34wQB3t0aw6FAn-84">
          <mxGeometry relative="1" as="geometry">
            <Array as="points">
              <mxPoint x="560" y="209" />
            </Array>
          </mxGeometry>
        </mxCell>
        <mxCell id="fG41fa34wQB3t0aw6FAn-93" value="invalid" style="edgeLabel;html=1;align=center;verticalAlign=middle;resizable=0;points=[];" vertex="1" connectable="0" parent="fG41fa34wQB3t0aw6FAn-86">
          <mxGeometry x="-0.0755" y="-1" relative="1" as="geometry">
            <mxPoint as="offset" />
          </mxGeometry>
        </mxCell>
        <mxCell id="fG41fa34wQB3t0aw6FAn-88" style="edgeStyle=orthogonalEdgeStyle;rounded=0;orthogonalLoop=1;jettySize=auto;html=1;exitX=0.5;exitY=1;exitDx=0;exitDy=0;entryX=0;entryY=0.5;entryDx=0;entryDy=0;" edge="1" parent="1" source="fG41fa34wQB3t0aw6FAn-78" target="fG41fa34wQB3t0aw6FAn-32">
          <mxGeometry relative="1" as="geometry">
            <Array as="points">
              <mxPoint x="560" y="269" />
            </Array>
          </mxGeometry>
        </mxCell>
        <mxCell id="fG41fa34wQB3t0aw6FAn-94" value="valid" style="edgeLabel;html=1;align=center;verticalAlign=middle;resizable=0;points=[];" vertex="1" connectable="0" parent="fG41fa34wQB3t0aw6FAn-88">
          <mxGeometry x="0.0041" y="-4" relative="1" as="geometry">
            <mxPoint as="offset" />
          </mxGeometry>
        </mxCell>
        <mxCell id="fG41fa34wQB3t0aw6FAn-78" value="" style="rhombus;whiteSpace=wrap;html=1;fontColor=#000000;fillColor=#ffffc0;strokeColor=#ff0000;" vertex="1" parent="1">
          <mxGeometry x="520" y="220" width="80" height="38.75" as="geometry" />
        </mxCell>
        <mxCell id="fG41fa34wQB3t0aw6FAn-95" style="edgeStyle=orthogonalEdgeStyle;rounded=0;orthogonalLoop=1;jettySize=auto;html=1;exitX=1;exitY=0.5;exitDx=0;exitDy=0;entryX=0;entryY=0.5;entryDx=0;entryDy=0;" edge="1" parent="1" source="fG41fa34wQB3t0aw6FAn-84" target="fG41fa34wQB3t0aw6FAn-48">
          <mxGeometry relative="1" as="geometry" />
        </mxCell>
        <mxCell id="fG41fa34wQB3t0aw6FAn-84" value="Báo lỗi" style="html=1;rounded=1;absoluteArcSize=1;arcSize=10;whiteSpace=wrap;" vertex="1" parent="1">
          <mxGeometry x="660" y="193.75" width="80" height="30" as="geometry" />
        </mxCell>
      </root>
    </mxGraphModel>
  </diagram>
</mxfile>
